<svg xmlns="http://www.w3.org/2000/svg" xmlns:xlink="http://www.w3.org/1999/xlink" id="Layer_1" data-name="Layer 1" viewBox="0 0 600 145"><defs><style>.cls-1,.cls-2,.cls-43{fill:none}.cls-1,.cls-2{stroke-miterlimit:10;stroke-width:2px}.cls-1{stroke:url(#linear-gradient)}.cls-2{stroke:url(#linear-gradient-2)}.cls-3{fill:url(#linear-gradient-3)}.cls-4{fill:url(#linear-gradient-4)}.cls-29,.cls-5,.cls-6{fill:#707070}.cls-6{font-size:11px}.cls-29,.cls-6{font-family:OpenSans-Semibold,Open Sans;font-weight:700}.cls-7{letter-spacing:.01em}.cls-10,.cls-11,.cls-12,.cls-8,.cls-9{letter-spacing:0}.cls-13{letter-spacing:.01em}.cls-14,.cls-15,.cls-16,.cls-17,.cls-18{letter-spacing:0}.cls-19,.cls-20{letter-spacing:.02em}.cls-21,.cls-22{letter-spacing:0}.cls-23{letter-spacing:.01em}.cls-24,.cls-25{letter-spacing:0}.cls-26,.cls-27{letter-spacing:.01em}.cls-28{letter-spacing:0}.cls-29{font-size:15px}.cls-30,.cls-31{letter-spacing:0}.cls-32,.cls-33{letter-spacing:-.01em}.cls-34{letter-spacing:.01em}.cls-35{letter-spacing:0}.cls-36{letter-spacing:-.01em}.cls-37{letter-spacing:0}.cls-38{letter-spacing:-.01em}.cls-39{letter-spacing:.02em}.cls-40,.cls-41{letter-spacing:-.01em}.cls-42{letter-spacing:0}.cls-43{stroke:#404242;stroke-linecap:round;stroke-linejoin:round;stroke-width:.5px}</style><linearGradient id="linear-gradient" x1="350.92" x2="419.78" y1="90.94" y2="90.94" gradientUnits="userSpaceOnUse"><stop offset="0" stop-color="#8176b5"/><stop offset="1" stop-color="#76c4e2"/></linearGradient><linearGradient id="linear-gradient-2" x1="179.87" x2="248.61" y1="90.94" y2="90.94" xlink:href="#linear-gradient"/><linearGradient id="linear-gradient-3" x1="140.96" x2="183.08" y1="90.94" y2="90.94" xlink:href="#linear-gradient"/><linearGradient id="linear-gradient-4" x1="416.92" x2="459.04" y1="90.94" y2="90.94" xlink:href="#linear-gradient"/></defs><title>7-layer</title><line x1="350.92" x2="419.78" y1="90.94" y2="90.94" class="cls-1"/><line x1="179.87" x2="248.61" y1="90.94" y2="90.94" class="cls-2"/><path d="M141,98.81h10.11V101h20V97h5.82V92.44h6.23v-3h-6.23V84.92H171v-4h-20v2.14H141Zm3-3V86.06h7.12v9.76Zm29.92-7.91V94H171V87.91Zm-5.83-4V98h-14v-14Z" class="cls-3"/><path d="M459,83.08H448.93V80.94H429v4h-5.82v4.53h-6.23v3h6.23V97H429v4h20V98.81H459Zm-3,3v9.76h-7.12V86.06ZM426.13,94V87.91H429V94ZM432,98v-14h14V98Z" class="cls-4"/><path d="M266.38,90.94a7.77,7.77,0,0,1-.87,4.12,3.22,3.22,0,0,1-5.28,0,7.59,7.59,0,0,1-.9-4.09,7.74,7.74,0,0,1,.87-4.13,3.22,3.22,0,0,1,5.28.06A7.56,7.56,0,0,1,266.38,90.94Zm-5.82,0a7.84,7.84,0,0,0,.54,3.38,2,2,0,0,0,3.49,0,7.73,7.73,0,0,0,.55-3.37,7.65,7.65,0,0,0-.55-3.36,2,2,0,0,0-3.49,0A7.84,7.84,0,0,0,260.56,90.94Z" class="cls-5"/><path d="M275.23,90.94a7.77,7.77,0,0,1-.87,4.12,3.22,3.22,0,0,1-5.28,0,7.69,7.69,0,0,1-.89-4.09,7.85,7.85,0,0,1,.86-4.13,3.22,3.22,0,0,1,5.28.06A7.56,7.56,0,0,1,275.23,90.94Zm-5.82,0a7.66,7.66,0,0,0,.55,3.38,1.81,1.81,0,0,0,1.74,1.06,1.84,1.84,0,0,0,1.75-1.07,7.91,7.91,0,0,0,.54-3.37,7.83,7.83,0,0,0-.54-3.36,2,2,0,0,0-3.49,0A7.66,7.66,0,0,0,269.41,90.94Z" class="cls-5"/><path d="M280.84,96.28h-1.18V88.69c0-.63,0-1.23.06-1.79l-.34.32-1.73,1.42-.65-.83,2.82-2.18h1Z" class="cls-5"/><path d="M291.14,90.94a7.77,7.77,0,0,1-.87,4.12A3.22,3.22,0,0,1,285,95a7.69,7.69,0,0,1-.89-4.09,7.85,7.85,0,0,1,.86-4.13,3.22,3.22,0,0,1,5.28.06A7.56,7.56,0,0,1,291.14,90.94Zm-5.82,0a7.66,7.66,0,0,0,.55,3.38,1.81,1.81,0,0,0,1.74,1.06,1.84,1.84,0,0,0,1.75-1.07,7.91,7.91,0,0,0,.54-3.37,7.83,7.83,0,0,0-.54-3.36,2,2,0,0,0-3.49,0A7.66,7.66,0,0,0,285.32,90.94Z" class="cls-5"/><path d="M296.75,96.28h-1.18V88.69c0-.63,0-1.23.06-1.79-.1.1-.21.21-.34.32l-1.73,1.42-.65-.83,2.82-2.18h1Z" class="cls-5"/><path d="M307.05,90.94a7.77,7.77,0,0,1-.87,4.12,3.22,3.22,0,0,1-5.28,0,7.69,7.69,0,0,1-.89-4.09,7.85,7.85,0,0,1,.86-4.13,3.22,3.22,0,0,1,5.28.06A7.56,7.56,0,0,1,307.05,90.94Zm-5.82,0a7.66,7.66,0,0,0,.55,3.38,1.81,1.81,0,0,0,1.74,1.06,1.84,1.84,0,0,0,1.75-1.07,7.91,7.91,0,0,0,.54-3.37,7.83,7.83,0,0,0-.54-3.36,2,2,0,0,0-3.49,0A7.66,7.66,0,0,0,301.23,90.94Z" class="cls-5"/><path d="M315.91,90.94a7.77,7.77,0,0,1-.87,4.12,3.22,3.22,0,0,1-5.28,0,7.59,7.59,0,0,1-.9-4.09,7.74,7.74,0,0,1,.87-4.13,3.22,3.22,0,0,1,5.28.06A7.56,7.56,0,0,1,315.91,90.94Zm-5.82,0a7.84,7.84,0,0,0,.54,3.38,2,2,0,0,0,3.49,0,7.73,7.73,0,0,0,.55-3.37,7.65,7.65,0,0,0-.55-3.36,2,2,0,0,0-3.49,0A7.84,7.84,0,0,0,310.09,90.94Z" class="cls-5"/><path d="M324.76,90.94a7.77,7.77,0,0,1-.87,4.12,3.22,3.22,0,0,1-5.28,0,7.69,7.69,0,0,1-.89-4.09,7.85,7.85,0,0,1,.86-4.13,3.22,3.22,0,0,1,5.28.06A7.56,7.56,0,0,1,324.76,90.94Zm-5.82,0a7.66,7.66,0,0,0,.55,3.38,1.81,1.81,0,0,0,1.74,1.06A1.84,1.84,0,0,0,323,94.31a7.91,7.91,0,0,0,.54-3.37,7.83,7.83,0,0,0-.54-3.36,2,2,0,0,0-3.49,0A7.66,7.66,0,0,0,318.94,90.94Z" class="cls-5"/><path d="M330.37,96.28h-1.18V88.69c0-.63,0-1.23.06-1.79l-.34.32-1.74,1.42-.64-.83,2.82-2.18h1Z" class="cls-5"/><path d="M340.67,90.94a7.77,7.77,0,0,1-.87,4.12,3.22,3.22,0,0,1-5.28,0,7.59,7.59,0,0,1-.89-4.09,7.85,7.85,0,0,1,.86-4.13,3.22,3.22,0,0,1,5.28.06A7.56,7.56,0,0,1,340.67,90.94Zm-5.82,0a7.66,7.66,0,0,0,.55,3.38,1.81,1.81,0,0,0,1.74,1.06,1.84,1.84,0,0,0,1.75-1.07,7.91,7.91,0,0,0,.54-3.37,7.83,7.83,0,0,0-.54-3.36,2,2,0,0,0-3.49,0A7.66,7.66,0,0,0,334.85,90.94Z" class="cls-5"/><text class="cls-6" transform="translate(125.17 124.53)"><tspan class="cls-7">S</tspan><tspan x="6.17" y="0" class="cls-8">e</tspan><tspan x="12.56" y="0" class="cls-9">n</tspan><tspan x="19.59" y="0" class="cls-10">d</tspan><tspan x="26.43" y="0" class="cls-11">i</tspan><tspan x="29.47" y="0" class="cls-12">n</tspan><tspan x="36.47" y="0">g </tspan><tspan x="45.45" y="0" class="cls-13">c</tspan><tspan x="51" y="0" class="cls-14">a</tspan><tspan x="57.37" y="0" class="cls-15">b</tspan><tspan x="64.27" y="0" class="cls-16">l</tspan><tspan x="67.36" y="0">e</tspan></text><text class="cls-6" transform="translate(273.45 124.53)"><tspan class="cls-17">B</tspan><tspan x="7.31" y="0" class="cls-18">i</tspan><tspan x="10.41" y="0" class="cls-19">t</tspan><tspan x="14.92" y="0" class="cls-20">s</tspan><tspan x="20.48" y="0">t</tspan><tspan x="24.8" y="0" class="cls-21">rea</tspan><tspan x="42.24" y="0">m</tspan></text><text class="cls-6" transform="translate(397.13 124.53)"><tspan class="cls-22">R</tspan><tspan x="7" y="0" class="cls-23">e</tspan><tspan x="13.41" y="0" class="cls-24">c</tspan><tspan x="18.81" y="0" class="cls-25">e</tspan><tspan x="25.19" y="0" class="cls-26">iv</tspan><tspan x="34.42" y="0" class="cls-11">i</tspan><tspan x="37.46" y="0" class="cls-12">n</tspan><tspan x="44.47" y="0">g </tspan><tspan x="53.44" y="0" class="cls-27">c</tspan><tspan x="58.99" y="0" class="cls-14">a</tspan><tspan x="65.36" y="0" class="cls-15">b</tspan><tspan x="72.26" y="0" class="cls-28">l</tspan><tspan x="75.35" y="0">e</tspan></text><text class="cls-29" transform="translate(234.76 21.4)"><tspan class="cls-30">T</tspan><tspan x="8.55" y="0" class="cls-31">h</tspan><tspan x="18.03" y="0">e </tspan><tspan x="30.57" y="0" class="cls-32">P</tspan><tspan x="39.61" y="0" class="cls-33">h</tspan><tspan x="48.93" y="0" class="cls-34">y</tspan><tspan x="57.09" y="0" class="cls-35">s</tspan><tspan x="64.33" y="0" class="cls-36">i</tspan><tspan x="68.43" y="0" class="cls-37">c</tspan><tspan x="75.92" y="0" class="cls-38">a</tspan><tspan x="84.52" y="0">l </tspan><tspan x="92.6" y="0" class="cls-39">L</tspan><tspan x="100.97" y="0" class="cls-40">a</tspan><tspan x="109.49" y="0" class="cls-41">y</tspan><tspan x="117.37" y="0" class="cls-42">e</tspan><tspan x="126.01" y="0">r</tspan></text><line x1="237" x2="365" y1="31.55" y2="31.55" class="cls-43"/></svg>