<svg id="Layer_1" data-name="Layer 1" xmlns="http://www.w3.org/2000/svg" xmlns:xlink="http://www.w3.org/1999/xlink" viewBox="0 0 600 145"><defs><style>.cls-1{font-size:15px;}.cls-1,.cls-15,.cls-49{fill:#707070;}.cls-1,.cls-15{font-family:OpenSans-Semibold, Open Sans;font-weight:700;}.cls-2{letter-spacing:0em;}.cls-3{letter-spacing:0em;}.cls-4{letter-spacing:-0.01em;}.cls-5{letter-spacing:-0.01em;}.cls-6{letter-spacing:0.01em;}.cls-7{letter-spacing:0em;}.cls-8{letter-spacing:-0.01em;}.cls-9{letter-spacing:-0.01em;}.cls-10{letter-spacing:0.02em;}.cls-11{letter-spacing:-0.01em;}.cls-12{letter-spacing:-0.01em;}.cls-13{letter-spacing:0em;}.cls-14,.cls-48{fill:none;stroke-linecap:round;stroke-linejoin:round;}.cls-14{stroke:#404242;stroke-width:0.5px;}.cls-15{font-size:11px;}.cls-16{letter-spacing:-0.07em;}.cls-17{letter-spacing:-0.01em;}.cls-18{letter-spacing:0em;}.cls-19{letter-spacing:0.01em;}.cls-20{letter-spacing:0.02em;}.cls-21{letter-spacing:0em;}.cls-22{letter-spacing:0em;}.cls-23{letter-spacing:0.01em;}.cls-24{letter-spacing:-0.01em;}.cls-25{letter-spacing:0em;}.cls-26{letter-spacing:0em;}.cls-27{letter-spacing:0.01em;}.cls-28{letter-spacing:0.01em;}.cls-29{letter-spacing:0.01em;}.cls-30{letter-spacing:0.03em;}.cls-31{letter-spacing:0em;}.cls-32{letter-spacing:0.01em;}.cls-33{letter-spacing:0em;}.cls-34{letter-spacing:0em;}.cls-35{letter-spacing:0.01em;}.cls-36{letter-spacing:0.03em;}.cls-37{letter-spacing:0em;}.cls-38{letter-spacing:0em;}.cls-39{letter-spacing:0em;}.cls-40{fill:url(#linear-gradient);}.cls-41{fill:url(#linear-gradient-2);}.cls-42{fill:url(#linear-gradient-3);}.cls-43{letter-spacing:-0.07em;}.cls-44{letter-spacing:0.01em;}.cls-45{letter-spacing:0em;}.cls-46{letter-spacing:0.01em;}.cls-47{letter-spacing:0.03em;}.cls-48{stroke:#707070;stroke-width:2px;}.cls-50{letter-spacing:-0.01em;}.cls-51{letter-spacing:0em;}.cls-52{letter-spacing:-0.01em;}.cls-53{letter-spacing:0em;}.cls-54{letter-spacing:0em;}.cls-55{fill:url(#linear-gradient-4);}.cls-56,.cls-57{fill:#fff;}.cls-57{stroke-miterlimit:10;stroke:url(#linear-gradient-5);}.cls-58{fill:url(#linear-gradient-6);}</style><linearGradient id="linear-gradient" x1="493.2" y1="43.07" x2="537.22" y2="43.07" gradientUnits="userSpaceOnUse"><stop offset="0" stop-color="#8176b5"/><stop offset="1" stop-color="#76c4e2"/></linearGradient><linearGradient id="linear-gradient-2" x1="493.2" y1="63.34" x2="537.22" y2="63.34" xlink:href="#linear-gradient"/><linearGradient id="linear-gradient-3" x1="493.2" y1="83.61" x2="537.22" y2="83.61" xlink:href="#linear-gradient"/><linearGradient id="linear-gradient-4" x1="57.4" y1="70.5" x2="152.4" y2="70.5" xlink:href="#linear-gradient"/><linearGradient id="linear-gradient-5" x1="93" y1="62.99" x2="119" y2="62.99" xlink:href="#linear-gradient"/><linearGradient id="linear-gradient-6" x1="270.99" y1="77.23" x2="329.01" y2="77.23" xlink:href="#linear-gradient"/></defs><title>7-layer</title><text class="cls-1" transform="translate(229.19 21.4)"><tspan class="cls-2">T</tspan><tspan class="cls-3" x="8.55" y="0">h</tspan><tspan x="18.03" y="0">e </tspan><tspan class="cls-4" x="30.57" y="0">D</tspan><tspan class="cls-5" x="41.4" y="0">a</tspan><tspan class="cls-6" x="50.02" y="0">t</tspan><tspan x="56.09" y="0">a </tspan><tspan class="cls-7" x="68.69" y="0">L</tspan><tspan class="cls-8" x="76.78" y="0">i</tspan><tspan class="cls-9" x="80.85" y="0">n</tspan><tspan x="90.28" y="0">k </tspan><tspan class="cls-10" x="102.76" y="0">L</tspan><tspan class="cls-11" x="111.12" y="0">a</tspan><tspan class="cls-12" x="119.64" y="0">y</tspan><tspan class="cls-13" x="127.53" y="0">e</tspan><tspan x="136.16" y="0">r</tspan></text><line class="cls-14" x1="229" y1="31.5" x2="371" y2="31.5"/><text class="cls-15" transform="translate(448.08 110.81)"><tspan class="cls-16">T</tspan><tspan class="cls-17" x="5.5" y="0">r</tspan><tspan class="cls-18" x="10.17" y="0">a</tspan><tspan class="cls-19" x="16.54" y="0">n</tspan><tspan class="cls-20" x="23.6" y="0">s</tspan><tspan class="cls-21" x="29.17" y="0">f</tspan><tspan class="cls-22" x="33.2" y="0">e</tspan><tspan x="39.59" y="0">r </tspan><tspan class="cls-23" x="47.19" y="0">f</tspan><tspan class="cls-24" x="51.27" y="0">r</tspan><tspan class="cls-25" x="55.94" y="0">a</tspan><tspan class="cls-26" x="62.31" y="0">m</tspan><tspan class="cls-27" x="72.85" y="0">e</tspan><tspan x="79.28" y="0">s </tspan><tspan class="cls-28" x="87.49" y="0">b</tspan><tspan class="cls-29" x="94.42" y="0">e</tspan><tspan class="cls-30" x="100.82" y="0">t</tspan><tspan class="cls-31" x="105.5" y="0">w</tspan><tspan class="cls-32" x="114.48" y="0">e</tspan><tspan class="cls-33" x="120.9" y="0">e</tspan><tspan x="127.29" y="0">n</tspan><tspan class="cls-34" x="27.04" y="13.2">n</tspan><tspan class="cls-35" x="34.05" y="13.2">e</tspan><tspan class="cls-36" x="40.44" y="13.2">t</tspan><tspan class="cls-31" x="45.13" y="13.2">w</tspan><tspan class="cls-37" x="54.11" y="13.2">o</tspan><tspan class="cls-38" x="60.84" y="13.2">r</tspan><tspan x="65.63" y="13.2">k </tspan><tspan class="cls-34" x="74.77" y="13.2">n</tspan><tspan class="cls-19" x="81.78" y="13.2">o</tspan><tspan class="cls-39" x="88.58" y="13.2">d</tspan><tspan class="cls-27" x="95.45" y="13.2">e</tspan><tspan x="101.88" y="13.2">s</tspan></text><path class="cls-40" d="M535.78,34.59H494.65A1.45,1.45,0,0,0,493.2,36V50.11a1.45,1.45,0,0,0,1.45,1.45h41.13a1.45,1.45,0,0,0,1.44-1.45V36A1.45,1.45,0,0,0,535.78,34.59Zm-.21,15.32H494.86V36.24h40.71Zm-20.85-4.18V40.42a.5.5,0,0,1,1,0v5.31a.5.5,0,0,1-1,0Zm3.69,0V40.42a.5.5,0,0,1,1,0v5.31a.5.5,0,0,1-1,0Zm3.69,0V40.42a.5.5,0,0,1,1,0v5.31a.5.5,0,0,1-1,0Zm3.7,0V40.42a.49.49,0,0,1,.49-.49.5.5,0,0,1,.5.49v5.31a.5.5,0,0,1-.5.49A.49.49,0,0,1,525.8,45.73Zm-25.85,0V40.42a.5.5,0,0,1,1,0v5.31a.5.5,0,0,1-1,0Zm3.69,0V40.42a.5.5,0,0,1,1,0v5.31a.5.5,0,0,1-1,0Zm3.69,0V40.42a.5.5,0,0,1,1,0v5.31a.5.5,0,0,1-1,0Zm3.69,0V40.42a.5.5,0,0,1,1,0v5.31a.5.5,0,0,1-1,0Zm18.47,0V40.42a.5.5,0,0,1,1,0v5.31a.5.5,0,0,1-1,0Z"/><path class="cls-41" d="M535.78,54.86H494.65a1.45,1.45,0,0,0-1.45,1.44V70.38a1.44,1.44,0,0,0,1.45,1.44h41.13a1.44,1.44,0,0,0,1.44-1.44V56.3A1.45,1.45,0,0,0,535.78,54.86Zm-.21,15.31H494.86V56.51h40.71ZM514.72,66v-5.3a.5.5,0,1,1,1,0V66a.5.5,0,1,1-1,0Zm3.69,0v-5.3a.5.5,0,1,1,1,0V66a.5.5,0,1,1-1,0Zm3.69,0v-5.3a.5.5,0,1,1,1,0V66a.5.5,0,1,1-1,0Zm3.7,0v-5.3a.5.5,0,0,1,.49-.5.51.51,0,0,1,.5.5V66a.5.5,0,0,1-.5.5A.49.49,0,0,1,525.8,66ZM500,66v-5.3a.5.5,0,1,1,1,0V66a.5.5,0,1,1-1,0Zm3.69,0v-5.3a.5.5,0,1,1,1,0V66a.5.5,0,1,1-1,0Zm3.69,0v-5.3a.5.5,0,1,1,1,0V66a.5.5,0,1,1-1,0ZM511,66v-5.3a.5.5,0,0,1,1,0V66a.5.5,0,1,1-1,0Zm18.47,0v-5.3a.5.5,0,1,1,1,0V66a.5.5,0,1,1-1,0Z"/><path class="cls-42" d="M535.78,75.13H494.65a1.44,1.44,0,0,0-1.45,1.44V90.65a1.45,1.45,0,0,0,1.45,1.44h41.13a1.45,1.45,0,0,0,1.44-1.44V76.57A1.44,1.44,0,0,0,535.78,75.13Zm-.21,15.31H494.86V76.78h40.71Zm-20.85-4.18V81a.5.5,0,1,1,1,0v5.3a.5.5,0,1,1-1,0Zm3.69,0V81a.5.5,0,1,1,1,0v5.3a.5.5,0,1,1-1,0Zm3.69,0V81a.5.5,0,1,1,1,0v5.3a.5.5,0,1,1-1,0Zm3.7,0V81a.49.49,0,0,1,.49-.5.5.5,0,0,1,.5.5v5.3a.51.51,0,0,1-.5.5A.5.5,0,0,1,525.8,86.26Zm-25.85,0V81a.5.5,0,1,1,1,0v5.3a.5.5,0,1,1-1,0Zm3.69,0V81a.5.5,0,1,1,1,0v5.3a.5.5,0,1,1-1,0Zm3.69,0V81a.5.5,0,1,1,1,0v5.3a.5.5,0,1,1-1,0Zm3.69,0V81a.5.5,0,0,1,1,0v5.3a.5.5,0,0,1-1,0Zm18.47,0V81a.5.5,0,1,1,1,0v5.3a.5.5,0,1,1-1,0Z"/><text class="cls-15" transform="translate(273.45 116.01)"><tspan class="cls-43">T</tspan><tspan class="cls-24" x="5.5" y="0">r</tspan><tspan class="cls-25" x="10.17" y="0">a</tspan><tspan class="cls-44" x="16.54" y="0">n</tspan><tspan class="cls-45" x="23.6" y="0">s</tspan><tspan class="cls-46" x="28.99" y="0">p</tspan><tspan class="cls-37" x="35.93" y="0">o</tspan><tspan class="cls-47" x="42.67" y="0">r</tspan><tspan x="47.77" y="0">t</tspan></text><line class="cls-48" x1="182.4" y1="80.5" x2="230.11" y2="80.5"/><polygon class="cls-49" points="226.13 83.89 229.52 80.5 226.13 77.11 229.01 77.11 232.4 80.5 229.01 83.89 226.13 83.89"/><line class="cls-48" x1="366.6" y1="80.5" x2="414.32" y2="80.5"/><polygon class="cls-49" points="410.33 83.89 413.73 80.5 410.33 77.11 413.21 77.11 416.6 80.5 413.21 83.89 410.33 83.89"/><text class="cls-15" transform="translate(64.9 110.81)"><tspan class="cls-50">F</tspan><tspan class="cls-17" x="5.76" y="0">r</tspan><tspan class="cls-18" x="10.44" y="0">a</tspan><tspan class="cls-51" x="16.81" y="0">m</tspan><tspan x="27.34" y="0">e </tspan><tspan class="cls-52" x="36.54" y="0">C</tspan><tspan class="cls-53" x="43.38" y="0">re</tspan><tspan x="54.44" y="0">ati</tspan><tspan class="cls-54" x="68.22" y="0">o</tspan><tspan x="74.95" y="0">n</tspan></text><polygon class="cls-55" points="152.4 98 57.4 98 57.4 63 104.9 43 152.4 63 152.4 98"/><polygon class="cls-56" points="150.02 63 59.77 63 59.77 63 104.9 44 150.02 63 150.02 63"/><polygon class="cls-56" points="59.77 64 150.02 64 150.02 64 104.9 83 59.77 64 59.77 64"/><path class="cls-57" d="M93.5,75.5h25s0-24-25-25V76"/><path class="cls-58" d="M328.8,74.47,323,62.87a1.91,1.91,0,0,0-1.72-1.07H305.8V57.93A1.93,1.93,0,0,0,303.87,56H272.93A1.94,1.94,0,0,0,271,57.93V90.81a1.93,1.93,0,0,0,1.94,1.93h4.13a7.73,7.73,0,0,0,14.93,0h16a7.73,7.73,0,0,0,14.93,0h4.13A1.93,1.93,0,0,0,329,90.81V75.34A2,2,0,0,0,328.8,74.47ZM284.53,94.68a3.87,3.87,0,1,1,3.87-3.87A3.87,3.87,0,0,1,284.53,94.68Zm19.4-5.8H292a7.73,7.73,0,0,0-14.93,0h-4.2v-31h31.07Zm23-14.48H315.47V63.67h6.6ZM315.47,94.68a3.87,3.87,0,1,1,3.87-3.87A3.87,3.87,0,0,1,315.47,94.68Zm7.47-5.8a7.73,7.73,0,0,0-14.93,0H305.8V63.67h7.8V74.34a1.93,1.93,0,0,0,1.94,1.93h11.6v4.87h-3.93V82h3.93v6.87Z"/></svg>