<svg xmlns="http://www.w3.org/2000/svg" xmlns:xlink="http://www.w3.org/1999/xlink" id="Layer_1" data-name="Layer 1" viewBox="0 0 600 145"><defs><style>.cls-1{font-size:15px}.cls-1,.cls-14,.cls-37{fill:#707070}.cls-1,.cls-14{font-family:OpenSans-Semibold,Open Sans;font-weight:700}.cls-2,.cls-3,.cls-4{letter-spacing:0}.cls-5{letter-spacing:.03em}.cls-6{letter-spacing:-.01em}.cls-7,.cls-8{letter-spacing:0}.cls-9{letter-spacing:.02em}.cls-10,.cls-11{letter-spacing:-.01em}.cls-12{letter-spacing:0}.cls-13,.cls-36,.cls-38,.cls-39,.cls-40,.cls-41,.cls-42,.cls-43,.cls-44,.cls-45{fill:none}.cls-13{stroke:#404242;stroke-width:.5px}.cls-13,.cls-36{stroke-linecap:round;stroke-linejoin:round}.cls-14{font-size:11px}.cls-15{letter-spacing:-.07em}.cls-16{letter-spacing:-.01em}.cls-17{letter-spacing:0}.cls-18{letter-spacing:.01em}.cls-19{letter-spacing:0}.cls-20{letter-spacing:.01em}.cls-21{letter-spacing:0}.cls-22{letter-spacing:.03em}.cls-23{letter-spacing:-.01em}.cls-24{letter-spacing:0}.cls-25{letter-spacing:-.02em}.cls-26{letter-spacing:.01em}.cls-27{letter-spacing:.02em}.cls-28{letter-spacing:-.01em}.cls-29{letter-spacing:0}.cls-30{letter-spacing:.03em}.cls-31{letter-spacing:.01em}.cls-32,.cls-33,.cls-34{letter-spacing:0}.cls-35{letter-spacing:.01em}.cls-36{stroke:#707070;stroke-width:2px}.cls-38,.cls-39,.cls-40,.cls-41,.cls-42,.cls-43,.cls-44,.cls-45{stroke-miterlimit:10}.cls-38{stroke:url(#linear-gradient)}.cls-39{stroke:url(#linear-gradient-2)}.cls-40{stroke:url(#linear-gradient-3)}.cls-41{stroke:url(#linear-gradient-4)}.cls-42{stroke:url(#linear-gradient-5)}.cls-43{stroke:url(#linear-gradient-6)}.cls-44{stroke:url(#linear-gradient-7)}.cls-45{stroke:url(#linear-gradient-8)}.cls-46{fill:url(#linear-gradient-9)}</style><linearGradient id="linear-gradient" x1="99.99" x2="125.99" y1="99.76" y2="99.76" gradientUnits="userSpaceOnUse"><stop offset="0" stop-color="#8176b5"/><stop offset="1" stop-color="#76c4e2"/></linearGradient><linearGradient id="linear-gradient-2" x1="89.97" x2="116.49" y1="64.5" y2="64.5" xlink:href="#linear-gradient"/><linearGradient id="linear-gradient-3" x1="124.99" x2="150.99" y1="54.74" y2="54.74" xlink:href="#linear-gradient"/><linearGradient id="linear-gradient-4" x1="134.49" x2="161.01" y1="90" y2="90" xlink:href="#linear-gradient"/><linearGradient id="linear-gradient-5" x1="443.99" x2="469.99" y1="89.76" y2="89.76" xlink:href="#linear-gradient"/><linearGradient id="linear-gradient-6" x1="443.97" x2="470.49" y1="64.5" y2="64.5" xlink:href="#linear-gradient"/><linearGradient id="linear-gradient-7" x1="468.99" x2="494.99" y1="64.74" y2="64.74" xlink:href="#linear-gradient"/><linearGradient id="linear-gradient-8" x1="468.49" x2="495.01" y1="90" y2="90" xlink:href="#linear-gradient"/><linearGradient id="linear-gradient-9" x1="271.49" x2="329.51" y1="82.73" y2="82.73" xlink:href="#linear-gradient"/></defs><title>7-layer</title><text class="cls-1" transform="translate(232.36 21.4)"><tspan class="cls-2">T</tspan><tspan x="8.55" y="0" class="cls-3">h</tspan><tspan x="18.03" y="0">e </tspan><tspan x="30.57" y="0" class="cls-4">N</tspan><tspan x="42.27" y="0">e</tspan><tspan x="50.91" y="0" class="cls-5">t</tspan><tspan x="57.23" y="0" class="cls-6">w</tspan><tspan x="69.39" y="0" class="cls-7">o</tspan><tspan x="78.49" y="0" class="cls-8">r</tspan><tspan x="84.93" y="0">k </tspan><tspan x="97.41" y="0" class="cls-9">L</tspan><tspan x="105.77" y="0" class="cls-10">a</tspan><tspan x="114.29" y="0" class="cls-11">y</tspan><tspan x="122.18" y="0" class="cls-12">e</tspan><tspan x="130.81" y="0">r</tspan></text><line x1="233" x2="369" y1="32" y2="32" class="cls-13"/><text class="cls-14" transform="translate(274.45 123.92)"><tspan class="cls-15">T</tspan><tspan x="5.5" y="0" class="cls-16">r</tspan><tspan x="10.17" y="0" class="cls-17">a</tspan><tspan x="16.54" y="0" class="cls-18">n</tspan><tspan x="23.6" y="0" class="cls-19">s</tspan><tspan x="28.99" y="0" class="cls-20">p</tspan><tspan x="35.93" y="0" class="cls-21">o</tspan><tspan x="42.67" y="0" class="cls-22">r</tspan><tspan x="47.77" y="0">t</tspan></text><text class="cls-14" transform="translate(88.02 124.17)"><tspan class="cls-23">P</tspan><tspan x="6.6" y="0" class="cls-19">a</tspan><tspan x="13.02" y="0" class="cls-24">c</tspan><tspan x="18.45" y="0" class="cls-25">k</tspan><tspan x="24.53" y="0" class="cls-26">e</tspan><tspan x="30.93" y="0" class="cls-27">t</tspan><tspan x="35.44" y="0">s </tspan><tspan x="43.65" y="0" class="cls-28">C</tspan><tspan x="50.49" y="0" class="cls-29">re</tspan><tspan x="61.56" y="0">ati</tspan><tspan x="75.33" y="0" class="cls-21">o</tspan><tspan x="82.06" y="0">n</tspan></text><text class="cls-14" transform="translate(422.44 123.92)"><tspan class="cls-23">P</tspan><tspan x="6.6" y="0" class="cls-19">a</tspan><tspan x="13.02" y="0" class="cls-24">c</tspan><tspan x="18.45" y="0" class="cls-25">k</tspan><tspan x="24.53" y="0" class="cls-26">e</tspan><tspan x="30.93" y="0" class="cls-27">t</tspan><tspan x="35.44" y="0">s </tspan><tspan x="43.65" y="0" class="cls-30">A</tspan><tspan x="51.28" y="0" class="cls-31">s</tspan><tspan x="56.72" y="0" class="cls-32">s</tspan><tspan x="62.13" y="0" class="cls-33">e</tspan><tspan x="68.52" y="0" class="cls-17">m</tspan><tspan x="79.02" y="0" class="cls-34">b</tspan><tspan x="85.92" y="0" class="cls-35">l</tspan><tspan x="89.13" y="0">y</tspan></text><line x1="183.4" x2="231.11" y1="88.41" y2="88.41" class="cls-36"/><polygon points="227.13 91.8 230.52 88.41 227.13 85.02 230.01 85.02 233.4 88.41 230.01 91.8 227.13 91.8" class="cls-37"/><line x1="367.6" x2="415.32" y1="88.41" y2="88.41" class="cls-36"/><polygon points="411.33 91.8 414.73 88.41 411.33 85.02 414.21 85.02 417.6 88.41 414.21 91.8 411.33 91.8" class="cls-37"/><path d="M125.49,87.5h-25s0,24,25,25v-26" class="cls-38"/><path d="M115.49,77V52s-24,0-25,25h26" class="cls-39"/><path d="M125.49,67h25s0-24-25-25V68" class="cls-40"/><path d="M135.49,77.5v25s24,0,25-25h-26" class="cls-41"/><path d="M469.49,77.5h-25s0,24,25,25v-26" class="cls-42"/><path d="M469.49,77V52s-24,0-25,25h26" class="cls-43"/><path d="M469.49,77h25s0-24-25-25V78" class="cls-44"/><path d="M469.49,77.5v25s24,0,25-25h-26" class="cls-45"/><path d="M329.3,80l-5.81-11.6a1.91,1.91,0,0,0-1.72-1.07H306.3V63.43a1.93,1.93,0,0,0-1.93-1.93H273.43a1.94,1.94,0,0,0-1.94,1.93V96.31a1.93,1.93,0,0,0,1.94,1.93h4.13a7.73,7.73,0,0,0,14.93,0h16a7.73,7.73,0,0,0,14.93,0h4.13a1.93,1.93,0,0,0,1.94-1.93V80.84A2,2,0,0,0,329.3,80ZM285,100.18a3.87,3.87,0,1,1,3.87-3.87A3.87,3.87,0,0,1,285,100.18Zm19.4-5.8H292.49a7.73,7.73,0,0,0-14.93,0h-4.2v-31h31.07Zm23-14.48H316V69.17h6.6ZM316,100.18a3.87,3.87,0,1,1,3.87-3.87A3.87,3.87,0,0,1,316,100.18Zm7.47-5.8a7.73,7.73,0,0,0-14.93,0H306.3V69.17h7.8V79.84A1.93,1.93,0,0,0,316,81.77h11.6v4.87h-3.93v.87h3.93v6.87Z" class="cls-46"/></svg>