<svg id="Layer_1" data-name="Layer 1" xmlns="http://www.w3.org/2000/svg" xmlns:xlink="http://www.w3.org/1999/xlink" viewBox="0 0 600 145"><defs><style>.cls-1{font-size:15px;}.cls-1,.cls-15,.cls-39{fill:#707070;}.cls-1,.cls-15{font-family:OpenSans-Semibold, Open Sans;font-weight:700;}.cls-2{letter-spacing:-0.07em;}.cls-3{letter-spacing:-0.01em;}.cls-4{letter-spacing:-0.01em;}.cls-5{letter-spacing:0em;}.cls-6{letter-spacing:0em;}.cls-7{letter-spacing:0em;}.cls-8{letter-spacing:0em;}.cls-9{letter-spacing:0.03em;}.cls-10{letter-spacing:0.02em;}.cls-11{letter-spacing:-0.01em;}.cls-12{letter-spacing:-0.01em;}.cls-13{letter-spacing:0em;}.cls-14,.cls-38,.cls-40,.cls-41,.cls-42,.cls-43{fill:none;}.cls-14{stroke:#404242;stroke-width:0.5px;}.cls-14,.cls-38{stroke-linecap:round;stroke-linejoin:round;}.cls-15{font-size:11px;}.cls-16{letter-spacing:-0.07em;}.cls-17{letter-spacing:-0.01em;}.cls-18{letter-spacing:0em;}.cls-19{letter-spacing:0.01em;}.cls-20{letter-spacing:0em;}.cls-21{letter-spacing:0.01em;}.cls-22{letter-spacing:0em;}.cls-23{letter-spacing:0.03em;}.cls-24{letter-spacing:0.01em;}.cls-25{letter-spacing:0.01em;}.cls-26{letter-spacing:0em;}.cls-27{letter-spacing:0em;}.cls-28{letter-spacing:0em;}.cls-29{letter-spacing:0.02em;}.cls-30{letter-spacing:0em;}.cls-31{letter-spacing:0em;}.cls-32{letter-spacing:0.01em;}.cls-33{letter-spacing:0.01em;}.cls-34{letter-spacing:0em;}.cls-35{letter-spacing:0em;}.cls-36{letter-spacing:0.01em;}.cls-37{fill:url(#linear-gradient);}.cls-38{stroke:#707070;stroke-width:2px;}.cls-40,.cls-41,.cls-42,.cls-43{stroke-miterlimit:10;}.cls-40{stroke:url(#linear-gradient-2);}.cls-41{stroke:url(#linear-gradient-3);}.cls-42{stroke:url(#linear-gradient-4);}.cls-43{stroke:url(#linear-gradient-5);}.cls-44{fill:url(#linear-gradient-6);}</style><linearGradient id="linear-gradient" x1="444.45" y1="76.81" x2="494.45" y2="76.81" gradientUnits="userSpaceOnUse"><stop offset="0" stop-color="#8176b5"/><stop offset="1" stop-color="#76c4e2"/></linearGradient><linearGradient id="linear-gradient-2" x1="99.49" y1="89.76" x2="125.49" y2="89.76" xlink:href="#linear-gradient"/><linearGradient id="linear-gradient-3" x1="99.47" y1="64.5" x2="125.99" y2="64.5" xlink:href="#linear-gradient"/><linearGradient id="linear-gradient-4" x1="124.49" y1="64.74" x2="150.49" y2="64.74" xlink:href="#linear-gradient"/><linearGradient id="linear-gradient-5" x1="123.99" y1="90" x2="150.51" y2="90" xlink:href="#linear-gradient"/><linearGradient id="linear-gradient-6" x1="270.99" y1="73.73" x2="329.01" y2="73.73" xlink:href="#linear-gradient"/></defs><title>7-layer</title><text class="cls-1" transform="translate(243.43 21.85)"><tspan class="cls-2">T</tspan><tspan class="cls-3" x="7.39" y="0">r</tspan><tspan class="cls-4" x="13.68" y="0">a</tspan><tspan class="cls-5" x="22.29" y="0">n</tspan><tspan class="cls-6" x="31.83" y="0">s</tspan><tspan class="cls-7" x="39.1" y="0">p</tspan><tspan class="cls-8" x="48.48" y="0">o</tspan><tspan class="cls-9" x="57.58" y="0">r</tspan><tspan x="64.48" y="0">t </tspan><tspan class="cls-10" x="74.27" y="0">L</tspan><tspan class="cls-11" x="82.64" y="0">a</tspan><tspan class="cls-12" x="91.15" y="0">y</tspan><tspan class="cls-13" x="99.04" y="0">e</tspan><tspan x="107.67" y="0">r</tspan></text><line class="cls-14" x1="236.5" y1="32" x2="364.5" y2="32"/><text class="cls-15" transform="translate(273.95 123.92)"><tspan class="cls-16">T</tspan><tspan class="cls-17" x="5.5" y="0">r</tspan><tspan class="cls-18" x="10.17" y="0">a</tspan><tspan class="cls-19" x="16.54" y="0">n</tspan><tspan class="cls-20" x="23.6" y="0">s</tspan><tspan class="cls-21" x="28.99" y="0">p</tspan><tspan class="cls-22" x="35.93" y="0">o</tspan><tspan class="cls-23" x="42.67" y="0">r</tspan><tspan x="47.77" y="0">t</tspan></text><text class="cls-15" transform="translate(87.68 124.17)"><tspan class="cls-24">S</tspan><tspan class="cls-25" x="6.17" y="0">e</tspan><tspan class="cls-26" x="12.56" y="0">g</tspan><tspan class="cls-27" x="18.72" y="0">m</tspan><tspan class="cls-28" x="29.26" y="0">e</tspan><tspan class="cls-18" x="35.65" y="0">n</tspan><tspan class="cls-29" x="42.62" y="0">t</tspan><tspan x="47.13" y="0">ati</tspan><tspan class="cls-22" x="60.9" y="0">o</tspan><tspan x="67.63" y="0">n</tspan></text><text class="cls-15" transform="translate(437.69 124.17)"><tspan class="cls-30">R</tspan><tspan class="cls-31" x="7" y="0">e</tspan><tspan class="cls-32" x="13.33" y="0">a</tspan><tspan class="cls-33" x="19.77" y="0">s</tspan><tspan class="cls-34" x="25.22" y="0">se</tspan><tspan class="cls-18" x="37.02" y="0">m</tspan><tspan class="cls-35" x="47.52" y="0">b</tspan><tspan class="cls-36" x="54.42" y="0">l</tspan><tspan x="57.63" y="0">y</tspan></text><path class="cls-37" d="M469.45,52.81a24,24,0,1,1-24,24,24,24,0,0,1,24-24m0-1a25,25,0,1,0,25,25,25,25,0,0,0-25-25Z"/><line class="cls-38" x1="182.9" y1="88.41" x2="230.61" y2="88.41"/><polygon class="cls-39" points="226.63 91.8 230.02 88.41 226.63 85.02 229.51 85.02 232.9 88.41 229.51 91.8 226.63 91.8"/><line class="cls-38" x1="367.1" y1="88.41" x2="414.82" y2="88.41"/><polygon class="cls-39" points="410.83 91.8 414.23 88.41 410.83 85.02 413.71 85.02 417.1 88.41 413.71 91.8 410.83 91.8"/><path class="cls-40" d="M125,77.5H100s0,24,25,25v-26"/><path class="cls-41" d="M125,77V52s-24,0-25,25h26"/><path class="cls-42" d="M125,77h25s0-24-25-25V78"/><path class="cls-43" d="M125,77.5v25s24,0,25-25H124"/><path class="cls-44" d="M328.8,71,323,59.37a1.91,1.91,0,0,0-1.72-1.07H305.8V54.43a1.93,1.93,0,0,0-1.93-1.93H272.93A1.94,1.94,0,0,0,271,54.43V87.31a1.93,1.93,0,0,0,1.94,1.93h4.13a7.73,7.73,0,0,0,14.93,0h16a7.73,7.73,0,0,0,14.93,0h4.13A1.93,1.93,0,0,0,329,87.31V71.84A2,2,0,0,0,328.8,71ZM284.53,91.18a3.87,3.87,0,1,1,3.87-3.87A3.87,3.87,0,0,1,284.53,91.18Zm19.4-5.8H292a7.73,7.73,0,0,0-14.93,0h-4.2v-31h31.07Zm23-14.48H315.47V60.17h6.6ZM315.47,91.18a3.87,3.87,0,1,1,3.87-3.87A3.87,3.87,0,0,1,315.47,91.18Zm7.47-5.8a7.73,7.73,0,0,0-14.93,0H305.8V60.17h7.8V70.84a1.93,1.93,0,0,0,1.94,1.93h11.6v4.87h-3.93v.87h3.93v6.87Z"/></svg>