<svg id="Layer_1" data-name="Layer 1" xmlns="http://www.w3.org/2000/svg" xmlns:xlink="http://www.w3.org/1999/xlink" viewBox="0 0 600 145"><defs><style>.cls-1{font-size:15px;}.cls-1,.cls-15,.cls-26{fill:#707070;}.cls-1,.cls-15{font-family:OpenSans-Semibold, Open Sans;font-weight:700;}.cls-2{letter-spacing:0em;}.cls-3{letter-spacing:0em;}.cls-4{letter-spacing:0.01em;}.cls-5{letter-spacing:0em;}.cls-6{letter-spacing:0em;}.cls-7{letter-spacing:0em;}.cls-8{letter-spacing:-0.01em;}.cls-9{letter-spacing:0em;}.cls-10{letter-spacing:0.02em;}.cls-11{letter-spacing:-0.01em;}.cls-12{letter-spacing:-0.01em;}.cls-13{letter-spacing:0em;}.cls-14,.cls-25{fill:none;stroke-linecap:round;stroke-linejoin:round;}.cls-14{stroke:#404242;stroke-width:0.5px;}.cls-15{font-size:11px;}.cls-16{letter-spacing:0.01em;}.cls-17{letter-spacing:0.01em;}.cls-18{letter-spacing:0em;}.cls-19{letter-spacing:0em;}.cls-20{letter-spacing:0em;}.cls-21{letter-spacing:-0.01em;}.cls-22{letter-spacing:0em;}.cls-23{letter-spacing:0em;}.cls-24{letter-spacing:0.01em;}.cls-25{stroke:#707070;stroke-width:2px;}.cls-27{fill:url(#linear-gradient);}.cls-28{fill:url(#linear-gradient-2);}</style><linearGradient id="linear-gradient" x1="342.99" y1="81.31" x2="401.49" y2="81.31" gradientUnits="userSpaceOnUse"><stop offset="0" stop-color="#8176b5"/><stop offset="1" stop-color="#76c4e2"/></linearGradient><linearGradient id="linear-gradient-2" x1="198.51" y1="81.31" x2="252.99" y2="81.31" xlink:href="#linear-gradient"/></defs><title>7-layer</title><text class="cls-1" transform="translate(236.67 21.4)"><tspan class="cls-2">T</tspan><tspan class="cls-3" x="8.55" y="0">h</tspan><tspan x="18.03" y="0">e </tspan><tspan class="cls-4" x="30.57" y="0">S</tspan><tspan class="cls-5" x="38.89" y="0">e</tspan><tspan class="cls-6" x="47.58" y="0">s</tspan><tspan class="cls-7" x="54.92" y="0">s</tspan><tspan class="cls-8" x="62.16" y="0">i</tspan><tspan class="cls-9" x="66.27" y="0">o</tspan><tspan x="75.37" y="0">n </tspan><tspan class="cls-10" x="88.79" y="0">L</tspan><tspan class="cls-11" x="97.16" y="0">a</tspan><tspan class="cls-12" x="105.67" y="0">y</tspan><tspan class="cls-13" x="113.56" y="0">e</tspan><tspan x="122.19" y="0">r</tspan></text><line class="cls-14" x1="237" y1="31.55" x2="365" y2="31.55"/><text class="cls-15" transform="translate(230.11 119.48)"><tspan class="cls-16">S</tspan><tspan class="cls-17" x="6.17" y="0">es</tspan><tspan class="cls-18" x="18.03" y="0">s</tspan><tspan x="23.4" y="0">i</tspan><tspan class="cls-19" x="26.47" y="0">o</tspan><tspan x="33.21" y="0">n </tspan><tspan class="cls-20" x="43.05" y="0">o</tspan><tspan x="49.75" y="0">f </tspan><tspan class="cls-21" x="56.6" y="0">c</tspan><tspan class="cls-19" x="61.99" y="0">o</tspan><tspan class="cls-22" x="68.73" y="0">mmu</tspan><tspan class="cls-23" x="96.71" y="0">n</tspan><tspan x="103.67" y="0">i</tspan><tspan class="cls-24" x="106.73" y="0">c</tspan><tspan x="112.28" y="0">ati</tspan><tspan class="cls-19" x="126.05" y="0">o</tspan><tspan x="132.79" y="0">n</tspan></text><line class="cls-25" x1="272.99" y1="81.31" x2="320.7" y2="81.31"/><polygon class="cls-26" points="316.72 84.7 320.11 81.31 316.72 77.92 319.6 77.92 322.99 81.31 319.6 84.7 316.72 84.7"/><path class="cls-27" d="M395.42,75.17a5.32,5.32,0,0,0,1.74-4,5.42,5.42,0,0,0-10.84,0,5.32,5.32,0,0,0,1.74,4,9.8,9.8,0,0,0-6,7.81,21.84,21.84,0,0,0-4.62-2,10,10,0,0,0,4.91-8.67A10.11,10.11,0,1,0,367,81a16.73,16.73,0,0,0-4.62,2,9.8,9.8,0,0,0-6-7.81,5.34,5.34,0,0,0,1.73-4,5.42,5.42,0,1,0-10.83,0,5.34,5.34,0,0,0,1.73,4,9.82,9.82,0,0,0-6.06,9,1.08,1.08,0,1,0,2.16,0,7.59,7.59,0,0,1,15.17,0v.22a19.06,19.06,0,0,0-7.22,15,1.08,1.08,0,0,0,2.16,0,17,17,0,0,1,33.95,0,1.09,1.09,0,0,0,2.17,0,19,19,0,0,0-7.22-15V84.2a7.59,7.59,0,0,1,15.17,0,1.08,1.08,0,1,0,2.16,0A9.82,9.82,0,0,0,395.42,75.17Zm-42.68-.72A3.25,3.25,0,1,1,356,71.2,3.23,3.23,0,0,1,352.74,74.45Zm11.55-2.17a7.95,7.95,0,1,1,7.95,8A7.92,7.92,0,0,1,364.29,72.28Zm27.45,2.17A3.25,3.25,0,1,1,395,71.2,3.24,3.24,0,0,1,391.74,74.45Z"/><path class="cls-28" d="M249,58.34H216.71a4,4,0,0,0-4,4V73.76H204a5.46,5.46,0,0,0-5.45,5.45V90.74A5.45,5.45,0,0,0,204,96.19h.12v8.1l9.59-8.1h7.53a5.45,5.45,0,0,0,5.45-5.45v-1h5.12l12.59,10.61V89.75H249a4,4,0,0,0,4-4V62.32A4,4,0,0,0,249,58.34Zm-24.51,32.4A3.29,3.29,0,0,1,221.2,94h-8.32l-6.65,5.61V94H204a3.29,3.29,0,0,1-3.29-3.3V79.21A3.29,3.29,0,0,1,204,75.92h8.77v9.85a4,4,0,0,0,4,4h7.78Zm3.65-13.53a2.78,2.78,0,1,1,2.78-2.77A2.77,2.77,0,0,1,228.14,77.21Zm8.93,0a2.78,2.78,0,1,1,2.78-2.77A2.77,2.77,0,0,1,237.07,77.21Zm8.93,0a2.78,2.78,0,1,1,2.78-2.77A2.77,2.77,0,0,1,246,77.21Z"/></svg>