<svg id="Layer_1" data-name="Layer 1" xmlns="http://www.w3.org/2000/svg" xmlns:xlink="http://www.w3.org/1999/xlink" viewBox="0 0 600 145"><defs><style>.cls-1{font-size:11px;}.cls-1,.cls-18,.cls-26{fill:#707070;}.cls-1,.cls-26{font-family:OpenSans-Semibold, Open Sans;font-weight:700;}.cls-2{letter-spacing:0em;}.cls-3{letter-spacing:0em;}.cls-4{letter-spacing:0em;}.cls-5{letter-spacing:0.04em;}.cls-6{letter-spacing:0.01em;}.cls-7{letter-spacing:0em;}.cls-8{letter-spacing:0em;}.cls-9{fill:url(#linear-gradient);}.cls-10{letter-spacing:-0.01em;}.cls-11{letter-spacing:0em;}.cls-12{letter-spacing:0em;}.cls-13{letter-spacing:0em;}.cls-14{letter-spacing:0.01em;}.cls-15{letter-spacing:0em;}.cls-16{fill:url(#linear-gradient-2);}.cls-17,.cls-41{fill:none;stroke-linecap:round;stroke-linejoin:round;}.cls-17{stroke:#707070;stroke-width:2px;}.cls-19{letter-spacing:-0.07em;}.cls-20{letter-spacing:-0.01em;}.cls-21{letter-spacing:0em;}.cls-22{letter-spacing:0.01em;}.cls-23{letter-spacing:0em;}.cls-24{letter-spacing:0em;}.cls-25{fill:url(#linear-gradient-3);}.cls-26{font-size:15px;}.cls-27{letter-spacing:0em;}.cls-28{letter-spacing:0em;}.cls-29{letter-spacing:-0.01em;}.cls-30{letter-spacing:-0.01em;}.cls-31{letter-spacing:0em;}.cls-32{letter-spacing:0em;}.cls-33{letter-spacing:-0.01em;}.cls-34{letter-spacing:0.01em;}.cls-35{letter-spacing:-0.01em;}.cls-36{letter-spacing:-0.01em;}.cls-37{letter-spacing:0em;}.cls-38{letter-spacing:0.02em;}.cls-39{letter-spacing:-0.01em;}.cls-40{letter-spacing:-0.01em;}.cls-41{stroke:#404242;stroke-width:0.5px;}</style><linearGradient id="linear-gradient" x1="117.01" y1="72.5" x2="144.54" y2="72.5" gradientUnits="userSpaceOnUse"><stop offset="0" stop-color="#8176b5"/><stop offset="1" stop-color="#76c4e2"/></linearGradient><linearGradient id="linear-gradient-2" x1="284.99" y1="72.5" x2="320.25" y2="72.5" xlink:href="#linear-gradient"/><linearGradient id="linear-gradient-3" x1="447.06" y1="72.5" x2="492.04" y2="72.5" xlink:href="#linear-gradient"/></defs><title>7-layer</title><text class="cls-1" transform="translate(104.17 124.61)"><tspan class="cls-2">E</tspan><tspan class="cls-3" x="6.1" y="0">n</tspan><tspan class="cls-4" x="13.11" y="0">c</tspan><tspan class="cls-5" x="18.54" y="0">r</tspan><tspan class="cls-6" x="23.77" y="0">y</tspan><tspan class="cls-7" x="29.81" y="0">p</tspan><tspan x="36.68" y="0">ti</tspan><tspan class="cls-8" x="44.07" y="0">o</tspan><tspan x="50.81" y="0">n</tspan></text><path class="cls-9" d="M142.48,58.7l-13,13a.28.28,0,1,1-.4-.4l12.58-12.58-2.4.09L126.89,71.17a7.74,7.74,0,1,0,5.34,5.44L135,73.88l.84,0,.58-.58-.14-2.34,1.15-1.14,1.24-.09.44-.44V68l.79-.79,1.15-.09.62-.62-.26-1.33,1-1,1.5-.09.71-.7V59.53l-.89-.88ZM123.59,82.56a2,2,0,1,1,0-2.78A2,2,0,0,1,123.59,82.56Z"/><text class="cls-1" transform="translate(267.73 124.61)"><tspan class="cls-10">C</tspan><tspan class="cls-8" x="6.89" y="0">o</tspan><tspan class="cls-11" x="13.63" y="0">m</tspan><tspan class="cls-12" x="24.13" y="0">p</tspan><tspan class="cls-13" x="31.03" y="0">r</tspan><tspan class="cls-14" x="35.76" y="0">es</tspan><tspan class="cls-15" x="47.63" y="0">s</tspan><tspan x="53" y="0">i</tspan><tspan class="cls-8" x="56.07" y="0">o</tspan><tspan x="62.8" y="0">n</tspan></text><path class="cls-16" d="M305.15,66.28h1.37V52.17h1.91V66.28h1.37l-2.33,2.32Zm-2.31-.74,2.32-2.32H303.8V49.11h-1.91V63.22h-1.37Zm3.23-8.32-1.82-1.11v2.24l1.82,1.1Zm14.18,27.85a1,1,0,0,1-.47.83l-16.49,9.74a.44.44,0,0,1-.15.12.91.91,0,0,1-.48.13.94.94,0,0,1-.48-.13L285.46,86.1a1,1,0,0,1-.47-.83L285.07,66a1,1,0,0,1,.31-.7,1,1,0,0,1,.23-.18l11.19-6.39v2.2l-8.8,5,8,4.63,6.72,3.84,14.48-8.14-8.3-5.06V58.93l10.69,6.52a1.42,1.42,0,0,1,.51,1Zm-18.55-9L295,72.17l-8-4.58-.08,17.14,14.8,8.55Zm16.63,8.48L318.19,68l-14.57,8V93.23ZM301.43,56l-1.81,1v2.2l1.81-1ZM298.21,68.6l2.32-2.32h-1.36V52.17h-1.91V66.28h-1.37Z"/><line class="cls-17" x1="190.36" y1="84" x2="238.07" y2="84"/><polygon class="cls-18" points="234.09 87.39 237.48 84 234.09 80.61 236.97 80.61 240.36 84 236.97 87.39 234.09 87.39"/><line class="cls-17" x1="364.88" y1="84" x2="412.6" y2="84"/><polygon class="cls-18" points="408.61 87.39 412 84 408.61 80.61 411.49 80.61 414.88 84 411.49 87.39 408.61 87.39"/><text class="cls-1" transform="translate(439.78 124.61)"><tspan class="cls-19">T</tspan><tspan class="cls-20" x="5.5" y="0">r</tspan><tspan class="cls-21" x="10.17" y="0">a</tspan><tspan class="cls-22" x="16.54" y="0">n</tspan><tspan class="cls-23" x="23.6" y="0">s</tspan><tspan class="cls-24" x="28.99" y="0">l</tspan><tspan x="32.04" y="0">ati</tspan><tspan class="cls-8" x="45.81" y="0">o</tspan><tspan x="52.55" y="0">n</tspan></text><path class="cls-25" d="M474.68,66.63h0a13.91,13.91,0,0,0-1.43-3.38l-1.84,1.08a11.81,11.81,0,0,0-1.92-2.45l1.5-1.53a14.64,14.64,0,0,0-2.93-2.21L467,60a12.51,12.51,0,0,0-2.89-1.17l.53-2.06a13.4,13.4,0,0,0-3.64-.45l0,2.13a12.24,12.24,0,0,0-3.09.43l-.57-2.05h0A13.91,13.91,0,0,0,454,58.26l1.08,1.84A11.49,11.49,0,0,0,452.62,62l-1.53-1.5a14.64,14.64,0,0,0-2.21,2.93l1.86,1.06a12.26,12.26,0,0,0-1.17,2.88l-2.06-.54a13.53,13.53,0,0,0-.45,3.65l2.13,0a11.82,11.82,0,0,0,.44,3.09h0l-2.06.57A13.91,13.91,0,0,0,449,77.52l1.84-1.08a11.49,11.49,0,0,0,1.92,2.45l-1.5,1.52a14.32,14.32,0,0,0,2.93,2.22l1.06-1.86a11.82,11.82,0,0,0,2.88,1.16L457.6,84a13.81,13.81,0,0,0,3.64.45l0-2.13a11.82,11.82,0,0,0,3.09-.44h0l.57,2.06a14.32,14.32,0,0,0,3.38-1.43l-1.08-1.84a12.16,12.16,0,0,0,2.45-1.92l1.53,1.5a14.22,14.22,0,0,0,2.2-2.93l-1.85-1.06a11.82,11.82,0,0,0,1.16-2.88l2.07.53a13.86,13.86,0,0,0,.45-3.64l-2.13,0a11.82,11.82,0,0,0-.44-3.09ZM469,70.32a7.84,7.84,0,0,1-2.25,5.57,8,8,0,0,1-1.62,1.27,8,8,0,0,1-1.89.8h0a7.94,7.94,0,0,1-2,.28,7.71,7.71,0,0,1-2-.25,7.81,7.81,0,0,1-1.9-.77A8.08,8.08,0,0,1,455.61,76a7.9,7.9,0,0,1-2.06-3.51h0a7.53,7.53,0,0,1-.28-2,7.71,7.71,0,0,1,.25-2,7.85,7.85,0,0,1,2-3.53,7.7,7.7,0,0,1,1.62-1.27,8,8,0,0,1,1.89-.8h0a7.53,7.53,0,0,1,2-.28,7.63,7.63,0,0,1,2,.25,7.89,7.89,0,0,1,4.81,3.62,8,8,0,0,1,.8,1.89h0A7.53,7.53,0,0,1,469,70.32Zm21.89,4.53h0a9.14,9.14,0,0,0-1.45-2l-1,1a7.61,7.61,0,0,0-1.62-1.28l.73-1.22a9.16,9.16,0,0,0-2.23-1l-.39,1.35a7.8,7.8,0,0,0-2-.3l0-1.41a9,9,0,0,0-2.41.27l.34,1.37a8.44,8.44,0,0,0-1.92.76l-.68-1.23h0a9.44,9.44,0,0,0-2,1.44l1,1A7.61,7.61,0,0,0,476,75.3l-1.21-.72a9.6,9.6,0,0,0-1,2.23l1.36.39a7.73,7.73,0,0,0-.3,2l-1.42,0a9.34,9.34,0,0,0,.28,2.41l1.37-.34a7.84,7.84,0,0,0,.76,1.92h0l-1.24.69a9.51,9.51,0,0,0,1.45,2l1-1a7.88,7.88,0,0,0,1.61,1.28l-.73,1.22a9.76,9.76,0,0,0,2.23,1l.39-1.36a7.81,7.81,0,0,0,2,.31l0,1.41a9,9,0,0,0,2.41-.27L484.64,87a7.81,7.81,0,0,0,1.92-.75h0l.69,1.23a9.12,9.12,0,0,0,1.95-1.44l-1-1a7.94,7.94,0,0,0,1.28-1.62l1.21.73a9.2,9.2,0,0,0,1-2.23l-1.36-.39a7.8,7.8,0,0,0,.3-2l1.42,0a9.47,9.47,0,0,0-.28-2.42l-1.37.34a7.4,7.4,0,0,0-.76-1.91Zm-3.1,3.26a4.75,4.75,0,0,1,.16,1.35,5.57,5.57,0,0,1-.2,1.34,5.07,5.07,0,0,1-.54,1.24,5.13,5.13,0,0,1-.85,1.07,5.24,5.24,0,0,1-1.09.81h0a5.61,5.61,0,0,1-1.26.5,5.18,5.18,0,0,1-1.35.15,5.13,5.13,0,0,1-1.35-.2,5.24,5.24,0,0,1-1.24-.54A4.79,4.79,0,0,1,479,83a5,5,0,0,1-.81-1.1h0a5,5,0,0,1-.5-1.26,5.18,5.18,0,0,1-.15-1.35,5,5,0,0,1,.19-1.34,5.17,5.17,0,0,1,.55-1.25,5.29,5.29,0,0,1,.84-1.06,5.24,5.24,0,0,1,1.09-.81h0a5.23,5.23,0,0,1,4-.45,4.86,4.86,0,0,1,1.24.54,5.08,5.08,0,0,1,1.07.84,5.51,5.51,0,0,1,.81,1.09h0A5.21,5.21,0,0,1,487.77,78.11Z"/><text class="cls-26" transform="translate(217 21.4)"><tspan class="cls-27">T</tspan><tspan class="cls-28" x="8.55" y="0">h</tspan><tspan x="18.03" y="0">e </tspan><tspan class="cls-29" x="30.57" y="0">P</tspan><tspan class="cls-30" x="39.61" y="0">r</tspan><tspan class="cls-31" x="45.98" y="0">e</tspan><tspan class="cls-21" x="54.66" y="0">s</tspan><tspan class="cls-32" x="61.95" y="0">e</tspan><tspan class="cls-33" x="70.59" y="0">n</tspan><tspan class="cls-34" x="80.01" y="0">t</tspan><tspan class="cls-35" x="86.08" y="0">at</tspan><tspan class="cls-36" x="100.51" y="0">i</tspan><tspan class="cls-37" x="104.61" y="0">o</tspan><tspan x="113.71" y="0">n </tspan><tspan class="cls-38" x="127.13" y="0">L</tspan><tspan class="cls-39" x="135.5" y="0">a</tspan><tspan class="cls-40" x="144.02" y="0">y</tspan><tspan class="cls-32" x="151.9" y="0">e</tspan><tspan x="160.54" y="0">r</tspan></text><line class="cls-41" x1="218.5" y1="31.55" x2="382.5" y2="31.55"/></svg>