<svg xmlns="http://www.w3.org/2000/svg" xmlns:xlink="http://www.w3.org/1999/xlink" id="Layer_1" data-name="Layer 1" viewBox="0 0 600 145"><defs><style>.cls-1{fill:url(#linear-gradient)}.cls-2{fill:url(#linear-gradient-2)}.cls-3{fill:url(#linear-gradient-3)}.cls-4{fill:#fff}.cls-5{fill:url(#linear-gradient-4)}.cls-6{fill:url(#linear-gradient-5)}.cls-7{fill:url(#linear-gradient-6)}.cls-8{fill:url(#linear-gradient-7)}.cls-9{fill:url(#linear-gradient-8)}.cls-10{fill:url(#linear-gradient-9)}.cls-11{fill:url(#linear-gradient-10)}.cls-12{fill:url(#linear-gradient-11)}.cls-13{fill:url(#linear-gradient-12)}.cls-14{fill:url(#linear-gradient-13)}.cls-15{fill:url(#linear-gradient-14)}.cls-16{font-size:11px}.cls-16,.cls-45,.cls-46{fill:#707070}.cls-16,.cls-46{font-family:OpenSans-Semibold,Open Sans;font-weight:700}.cls-17{letter-spacing:-.01em}.cls-18{letter-spacing:0}.cls-19{letter-spacing:.01em}.cls-20,.cls-21,.cls-22,.cls-23{letter-spacing:0}.cls-24{letter-spacing:.01em}.cls-25{letter-spacing:0}.cls-26{letter-spacing:.01em}.cls-27{letter-spacing:.02em}.cls-28{letter-spacing:0}.cls-29{letter-spacing:-.01em}.cls-30,.cls-31,.cls-32{letter-spacing:0}.cls-33{letter-spacing:.01em}.cls-34,.cls-35,.cls-36,.cls-37,.cls-38,.cls-39{letter-spacing:0}.cls-40{letter-spacing:.01em}.cls-41,.cls-42,.cls-43{letter-spacing:0}.cls-44,.cls-59{fill:none;stroke-linecap:round;stroke-linejoin:round}.cls-44{stroke:#707070;stroke-width:2px}.cls-46{font-size:15px}.cls-47{letter-spacing:.01em}.cls-48,.cls-49{letter-spacing:0}.cls-50,.cls-51{letter-spacing:-.01em}.cls-52{letter-spacing:0}.cls-53{letter-spacing:-.01em}.cls-54{letter-spacing:0}.cls-55{letter-spacing:.02em}.cls-56,.cls-57{letter-spacing:-.01em}.cls-58{letter-spacing:0}.cls-59{stroke:#404242;stroke-width:.5px}</style><linearGradient id="linear-gradient" x1="33.38" x2="193.28" y1="74.39" y2="74.39" gradientUnits="userSpaceOnUse"><stop offset="0" stop-color="#8176b5"/><stop offset="1" stop-color="#76c4e2"/></linearGradient><linearGradient id="linear-gradient-2" x1="33.38" x2="163.3" y1="96.12" y2="96.12" xlink:href="#linear-gradient"/><linearGradient id="linear-gradient-3" x1="163.3" x2="194.03" y1="92.07" y2="92.07" xlink:href="#linear-gradient"/><linearGradient id="linear-gradient-4" x1="485.45" x2="566.62" y1="92.07" y2="92.07" xlink:href="#linear-gradient"/><linearGradient id="linear-gradient-5" x1="521.44" x2="556.03" y1="80.06" y2="80.06" xlink:href="#linear-gradient"/><linearGradient id="linear-gradient-6" x1="521.44" x2="556.03" y1="84.38" y2="84.38" xlink:href="#linear-gradient"/><linearGradient id="linear-gradient-7" x1="521.44" x2="556.03" y1="88.69" y2="88.69" xlink:href="#linear-gradient"/><linearGradient id="linear-gradient-8" x1="521.44" x2="550.37" y1="93" y2="93" xlink:href="#linear-gradient"/><linearGradient id="linear-gradient-9" x1="521.44" x2="542.05" y1="97.32" y2="97.32" xlink:href="#linear-gradient"/><linearGradient id="linear-gradient-10" x1="494.95" x2="516.59" y1="102.44" y2="102.44" xlink:href="#linear-gradient"/><linearGradient id="linear-gradient-11" x1="494.95" x2="516.59" y1="104.65" y2="104.65" xlink:href="#linear-gradient"/><linearGradient id="linear-gradient-12" x1="494.95" x2="516.59" y1="106.86" y2="106.86" xlink:href="#linear-gradient"/><linearGradient id="linear-gradient-13" x1="494.95" x2="516.59" y1="109.06" y2="109.06" xlink:href="#linear-gradient"/><linearGradient id="linear-gradient-14" x1="494.95" x2="516.71" y1="88.8" y2="88.8" xlink:href="#linear-gradient"/></defs><title>7-layer</title><polygon points="33.38 78.45 63.96 70.34 193.28 70.34 162.69 78.45 33.38 78.45" class="cls-1"/><rect width="129.92" height="35.34" x="33.38" y="78.45" class="cls-2"/><polygon points="163.3 113.79 194.03 105.68 194.03 70.34 163.3 78.45 163.3 113.79" class="cls-3"/><path d="M177.22,97l2.85-8.35h-3.75V86.79h5.45v1.35L178.9,97Z" class="cls-4"/><path d="M56.43,100.33l-.49-1.62H53.46L53,100.33H51.42l2.4-6.82h1.75L58,100.33Zm-.84-2.83c-.45-1.46-.71-2.29-.77-2.48l-.12-.45c-.1.39-.39,1.37-.88,2.93Z" class="cls-4"/><path d="M63.52,95.66a2.07,2.07,0,0,1-.68,1.67,2.93,2.93,0,0,1-2,.58h-.62v2.42H58.83V93.54H61a2.92,2.92,0,0,1,1.88.53A1.94,1.94,0,0,1,63.52,95.66Zm-3.25,1.07h.47a1.55,1.55,0,0,0,1-.26.91.91,0,0,0,.33-.76.92.92,0,0,0-.28-.75,1.28,1.28,0,0,0-.86-.24h-.66Z" class="cls-4"/><path d="M69.49,95.66a2,2,0,0,1-.69,1.67,2.88,2.88,0,0,1-1.94.58h-.62v2.42H64.8V93.54H67a2.92,2.92,0,0,1,1.88.53A2,2,0,0,1,69.49,95.66Zm-3.25,1.07h.47a1.55,1.55,0,0,0,1-.26.91.91,0,0,0,.33-.76,1,1,0,0,0-.28-.75,1.29,1.29,0,0,0-.87-.24h-.65Z" class="cls-4"/><path d="M70.77,100.33V93.54h1.44v5.6H75v1.19Z" class="cls-4"/><path d="M76.14,100.33V93.54h1.44v6.79Z" class="cls-4"/><path d="M82.17,94.64a1.47,1.47,0,0,0-1.26.61,2.82,2.82,0,0,0-.44,1.7c0,1.51.56,2.27,1.7,2.27a5.34,5.34,0,0,0,1.73-.36v1.21a4.85,4.85,0,0,1-1.86.35,2.85,2.85,0,0,1-2.27-.9A3.82,3.82,0,0,1,79,96.94a4.16,4.16,0,0,1,.38-1.85,2.8,2.8,0,0,1,1.11-1.22,3.19,3.19,0,0,1,1.69-.43,4.58,4.58,0,0,1,2,.48l-.47,1.17a8.09,8.09,0,0,0-.76-.31A2.31,2.31,0,0,0,82.17,94.64Z" class="cls-4"/><path d="M89.5,100.33,89,98.71H86.53L86,100.33H84.49l2.39-6.82h1.76l2.41,6.82Zm-.84-2.83C88.21,96,88,95.21,87.89,95l-.12-.45c-.1.39-.39,1.37-.88,2.93Z" class="cls-4"/><path d="M94.52,100.33H93.08V94.74H91.24v-1.2h5.12v1.2H94.52Z" class="cls-4"/><path d="M97.41,100.33V93.54h1.44v6.79Z" class="cls-4"/><path d="M106.71,96.92a3.7,3.7,0,0,1-.83,2.59,3.09,3.09,0,0,1-2.4.91,3.05,3.05,0,0,1-2.39-.91,3.68,3.68,0,0,1-.84-2.6,3.63,3.63,0,0,1,.84-2.58,3.12,3.12,0,0,1,2.4-.9,3.08,3.08,0,0,1,2.39.9A3.67,3.67,0,0,1,106.71,96.92Zm-4.95,0a2.85,2.85,0,0,0,.43,1.72,1.52,1.52,0,0,0,1.29.57c1.15,0,1.72-.76,1.72-2.29s-.57-2.29-1.71-2.29a1.5,1.5,0,0,0-1.29.58A2.82,2.82,0,0,0,101.76,96.92Z" class="cls-4"/><path d="M114.14,100.33h-1.83l-3-5.14h0c.05.91.08,1.56.08,1.94v3.2h-1.28V93.54h1.81l2.95,5.08h0c0-.88-.07-1.5-.07-1.87V93.54h1.3Z" class="cls-4"/><path d="M118.32,100.33V93.54h1.43v5.6h2.76v1.19Z" class="cls-4"/><path d="M127.84,100.33l-.49-1.62h-2.48l-.49,1.62h-1.55l2.4-6.82H127l2.4,6.82ZM127,97.5c-.45-1.46-.71-2.29-.76-2.48s-.1-.34-.13-.45c-.1.39-.39,1.37-.87,2.93Z" class="cls-4"/><path d="M132.36,96.33l1.41-2.79h1.55l-2.25,4.15v2.64h-1.43v-2.6l-2.25-4.19H131Z" class="cls-4"/><path d="M140.08,100.33h-3.91V93.54h3.91v1.18h-2.47v1.49h2.3v1.18h-2.3v1.75h2.47Z" class="cls-4"/><path d="M142.94,97.72v2.61H141.5V93.54h2a3.4,3.4,0,0,1,2,.5,2,2,0,0,1,.34,2.6,2.19,2.19,0,0,1-.94.73l2,3h-1.6l-1.62-2.61Zm0-1.17h.46a1.8,1.8,0,0,0,1-.22.81.81,0,0,0,.32-.72.76.76,0,0,0-.33-.69,2.08,2.08,0,0,0-1-.2h-.43Z" class="cls-4"/><path d="M565.62,60.17a3.34,3.34,0,0,0-2.35-1l-74.42,0h0a3.4,3.4,0,0,0-3.35,3.35l0,59.12A3.4,3.4,0,0,0,488.8,125l74.43,0h0a3.4,3.4,0,0,0,3.35-3.35l0-59.12A3.37,3.37,0,0,0,565.62,60.17Zm-2.24,61.48a.23.23,0,0,1-.15.15v0l-74.42,0c-.06,0-.16-.11-.16-.16l0-50.33h74.73Zm-1.32-56.46a1.9,1.9,0,0,1-1.9,1.9l-52.39,0a1.89,1.89,0,1,1,0-3.78l52.39,0A1.9,1.9,0,0,1,562.06,65.19Zm-59.89-.07a1.29,1.29,0,1,1-1.29-1.29A1.28,1.28,0,0,1,502.17,65.12Zm-3.79,0a1.29,1.29,0,1,1-1.28-1.28A1.29,1.29,0,0,1,498.38,65.11Zm-5.07-1.28A1.28,1.28,0,1,1,492,65.11,1.28,1.28,0,0,1,493.31,63.83Z" class="cls-5"/><rect width="34.59" height="2.35" x="521.44" y="78.89" class="cls-6"/><rect width="34.59" height="2.35" x="521.44" y="83.2" class="cls-7"/><rect width="34.59" height="2.35" x="521.44" y="87.51" class="cls-8"/><rect width="28.94" height="2.35" x="521.44" y="91.83" class="cls-9"/><rect width="20.62" height="2.35" x="521.44" y="96.14" class="cls-10"/><rect width="21.64" height="1.36" x="494.95" y="101.76" class="cls-11"/><rect width="21.64" height="1.36" x="494.95" y="103.97" class="cls-12"/><rect width="21.64" height="1.36" x="494.95" y="106.17" class="cls-13"/><rect width="21.64" height="1.36" x="494.95" y="108.38" class="cls-14"/><rect width="21.76" height="19.82" x="494.95" y="78.89" class="cls-15"/><text class="cls-16" transform="translate(504.69 53.87)"><tspan class="cls-17">W</tspan><tspan x="10.26" y="0" class="cls-18">e</tspan><tspan x="16.66" y="0" class="cls-19">b</tspan><tspan x="23.58" y="0" class="cls-20">s</tspan><tspan x="28.95" y="0" class="cls-21">i</tspan><tspan x="32.05" y="0" class="cls-22">t</tspan><tspan x="36.35" y="0">e</tspan></text><text class="cls-16" transform="translate(315.48 73.29)"><tspan class="cls-23">R</tspan><tspan x="7" y="0" class="cls-24">e</tspan><tspan x="13.43" y="0">q</tspan><tspan x="20.29" y="0" class="cls-25">u</tspan><tspan x="27.29" y="0" class="cls-26">e</tspan><tspan x="33.72" y="0" class="cls-27">s</tspan><tspan x="39.28" y="0" class="cls-28">t </tspan><tspan x="46.46" y="0" class="cls-29">c</tspan><tspan x="51.85" y="0" class="cls-30">o</tspan><tspan x="58.59" y="0" class="cls-31">n</tspan><tspan x="65.56" y="0" class="cls-22">t</tspan><tspan x="69.86" y="0" class="cls-18">e</tspan><tspan x="76.25" y="0" class="cls-31">n</tspan><tspan x="83.22" y="0" class="cls-28">t</tspan></text><text class="cls-16" transform="translate(268.35 112.77)"><tspan class="cls-32">R</tspan><tspan x="7" y="0" class="cls-33">e</tspan><tspan x="13.39" y="0" class="cls-34">t</tspan><tspan x="17.71" y="0" class="cls-35">u</tspan><tspan x="24.67" y="0" class="cls-36">r</tspan><tspan x="29.46" y="0">n </tspan><tspan x="39.3" y="0" class="cls-29">c</tspan><tspan x="44.69" y="0" class="cls-30">o</tspan><tspan x="51.42" y="0" class="cls-31">n</tspan><tspan x="58.4" y="0" class="cls-22">t</tspan><tspan x="62.7" y="0" class="cls-18">e</tspan><tspan x="69.09" y="0" class="cls-31">n</tspan><tspan x="76.06" y="0" class="cls-28">t </tspan><tspan x="83.24" y="0" class="cls-37">i</tspan><tspan x="86.29" y="0">n </tspan><tspan x="96.13" y="0" class="cls-38">r</tspan><tspan x="100.86" y="0" class="cls-24">e</tspan><tspan x="107.3" y="0">q</tspan><tspan x="114.15" y="0" class="cls-39">u</tspan><tspan x="121.12" y="0" class="cls-37">i</tspan><tspan x="124.17" y="0" class="cls-34">r</tspan><tspan x="128.9" y="0" class="cls-40">e</tspan><tspan x="135.34" y="0">d </tspan><tspan x="145.05" y="0" class="cls-41">f</tspan><tspan x="149.08" y="0" class="cls-42">o</tspan><tspan x="155.82" y="0" class="cls-36">r</tspan><tspan x="160.6" y="0" class="cls-43">m</tspan><tspan x="171.09" y="0">at</tspan></text><line x1="311" x2="205.29" y1="70.13" y2="70.13" class="cls-44"/><polygon points="209.27 66.74 205.88 70.13 209.27 73.52 206.39 73.52 203 70.13 206.39 66.74 209.27 66.74" class="cls-45"/><line x1="456" x2="471.71" y1="109.6" y2="109.6" class="cls-44"/><polygon points="467.73 113 471.12 109.6 467.73 106.21 470.61 106.21 474 109.6 470.61 113 467.73 113" class="cls-45"/><line x1="474" x2="408" y1="70.13" y2="70.13" class="cls-44"/><line x1="265" x2="205.65" y1="109.6" y2="109.6" class="cls-44"/><text class="cls-46" transform="translate(237.33 21.35)"><tspan class="cls-47">A</tspan><tspan x="10.1" y="0" class="cls-48">p</tspan><tspan x="19.41" y="0" class="cls-49">p</tspan><tspan x="28.74" y="0" class="cls-50">l</tspan><tspan x="32.82" y="0" class="cls-51">i</tspan><tspan x="36.92" y="0" class="cls-52">c</tspan><tspan x="44.41" y="0" class="cls-53">at</tspan><tspan x="58.84" y="0" class="cls-51">i</tspan><tspan x="62.94" y="0" class="cls-54">o</tspan><tspan x="72.04" y="0">n </tspan><tspan x="85.46" y="0" class="cls-55">L</tspan><tspan x="93.83" y="0" class="cls-56">a</tspan><tspan x="102.35" y="0" class="cls-57">y</tspan><tspan x="110.23" y="0" class="cls-58">e</tspan><tspan x="118.87" y="0">r</tspan></text><line x1="236" x2="364" y1="32" y2="32" class="cls-59"/></svg>