<svg id="Layer_1" data-name="Layer 1" xmlns="http://www.w3.org/2000/svg" xmlns:xlink="http://www.w3.org/1999/xlink" viewBox="0 0 600 145"><defs><style>.cls-1{fill:url(#linear-gradient);}.cls-2{fill:url(#linear-gradient-2);}.cls-3{fill:url(#linear-gradient-3);}.cls-4{fill:#fff;}.cls-5{fill:url(#linear-gradient-4);}.cls-6{fill:url(#linear-gradient-5);}.cls-7{fill:url(#linear-gradient-6);}.cls-8{fill:url(#linear-gradient-7);}.cls-9{fill:url(#linear-gradient-8);}.cls-10{fill:url(#linear-gradient-9);}.cls-11{fill:url(#linear-gradient-10);}.cls-12{fill:url(#linear-gradient-11);}.cls-13{fill:url(#linear-gradient-12);}.cls-14{fill:url(#linear-gradient-13);}.cls-15{fill:url(#linear-gradient-14);}.cls-16{font-size:11px;}.cls-16,.cls-45,.cls-46{fill:#707070;}.cls-16,.cls-46{font-family:OpenSans-Semibold, Open Sans;font-weight:700;}.cls-17{letter-spacing:-0.01em;}.cls-18{letter-spacing:0em;}.cls-19{letter-spacing:0.01em;}.cls-20{letter-spacing:0em;}.cls-21{letter-spacing:0em;}.cls-22{letter-spacing:0em;}.cls-23{letter-spacing:0em;}.cls-24{letter-spacing:0.01em;}.cls-25{letter-spacing:0em;}.cls-26{letter-spacing:0.01em;}.cls-27{letter-spacing:0.02em;}.cls-28{letter-spacing:0em;}.cls-29{letter-spacing:-0.01em;}.cls-30{letter-spacing:0em;}.cls-31{letter-spacing:0em;}.cls-32{letter-spacing:0em;}.cls-33{letter-spacing:0.01em;}.cls-34{letter-spacing:0em;}.cls-35{letter-spacing:0em;}.cls-36{letter-spacing:0em;}.cls-37{letter-spacing:0em;}.cls-38{letter-spacing:0em;}.cls-39{letter-spacing:0em;}.cls-40{letter-spacing:0.01em;}.cls-41{letter-spacing:0em;}.cls-42{letter-spacing:0em;}.cls-43{letter-spacing:0em;}.cls-44,.cls-59{fill:none;stroke-linecap:round;stroke-linejoin:round;}.cls-44{stroke:#707070;stroke-width:2px;}.cls-46{font-size:15px;}.cls-47{letter-spacing:0.01em;}.cls-48{letter-spacing:0em;}.cls-49{letter-spacing:0em;}.cls-50{letter-spacing:-0.01em;}.cls-51{letter-spacing:-0.01em;}.cls-52{letter-spacing:0em;}.cls-53{letter-spacing:-0.01em;}.cls-54{letter-spacing:0em;}.cls-55{letter-spacing:0.02em;}.cls-56{letter-spacing:-0.01em;}.cls-57{letter-spacing:-0.01em;}.cls-58{letter-spacing:0em;}.cls-59{stroke:#404242;stroke-width:0.5px;}</style><linearGradient id="linear-gradient" x1="33.38" y1="74.39" x2="193.28" y2="74.39" gradientUnits="userSpaceOnUse"><stop offset="0" stop-color="#8176b5"/><stop offset="1" stop-color="#76c4e2"/></linearGradient><linearGradient id="linear-gradient-2" x1="33.38" y1="96.12" x2="163.3" y2="96.12" xlink:href="#linear-gradient"/><linearGradient id="linear-gradient-3" x1="163.3" y1="92.07" x2="194.03" y2="92.07" xlink:href="#linear-gradient"/><linearGradient id="linear-gradient-4" x1="485.45" y1="92.07" x2="566.62" y2="92.07" xlink:href="#linear-gradient"/><linearGradient id="linear-gradient-5" x1="521.44" y1="80.06" x2="556.03" y2="80.06" xlink:href="#linear-gradient"/><linearGradient id="linear-gradient-6" x1="521.44" y1="84.38" x2="556.03" y2="84.38" xlink:href="#linear-gradient"/><linearGradient id="linear-gradient-7" x1="521.44" y1="88.69" x2="556.03" y2="88.69" xlink:href="#linear-gradient"/><linearGradient id="linear-gradient-8" x1="521.44" y1="93" x2="550.37" y2="93" xlink:href="#linear-gradient"/><linearGradient id="linear-gradient-9" x1="521.44" y1="97.32" x2="542.05" y2="97.32" xlink:href="#linear-gradient"/><linearGradient id="linear-gradient-10" x1="494.95" y1="102.44" x2="516.59" y2="102.44" xlink:href="#linear-gradient"/><linearGradient id="linear-gradient-11" x1="494.95" y1="104.65" x2="516.59" y2="104.65" xlink:href="#linear-gradient"/><linearGradient id="linear-gradient-12" x1="494.95" y1="106.86" x2="516.59" y2="106.86" xlink:href="#linear-gradient"/><linearGradient id="linear-gradient-13" x1="494.95" y1="109.06" x2="516.59" y2="109.06" xlink:href="#linear-gradient"/><linearGradient id="linear-gradient-14" x1="494.95" y1="88.8" x2="516.71" y2="88.8" xlink:href="#linear-gradient"/></defs><title>7-layer</title><polygon class="cls-1" points="33.38 78.45 63.96 70.34 193.28 70.34 162.69 78.45 33.38 78.45"/><rect class="cls-2" x="33.38" y="78.45" width="129.92" height="35.34"/><polygon class="cls-3" points="163.3 113.79 194.03 105.68 194.03 70.34 163.3 78.45 163.3 113.79"/><path class="cls-4" d="M177.22,97l2.85-8.35h-3.75V86.79h5.45v1.35L178.9,97Z"/><path class="cls-4" d="M56.43,100.33l-.49-1.62H53.46L53,100.33H51.42l2.4-6.82h1.75L58,100.33Zm-.84-2.83c-.45-1.46-.71-2.29-.77-2.48l-.12-.45c-.1.39-.39,1.37-.88,2.93Z"/><path class="cls-4" d="M63.52,95.66a2.07,2.07,0,0,1-.68,1.67,2.93,2.93,0,0,1-2,.58h-.62v2.42H58.83V93.54H61a2.92,2.92,0,0,1,1.88.53A1.94,1.94,0,0,1,63.52,95.66Zm-3.25,1.07h.47a1.55,1.55,0,0,0,1-.26.91.91,0,0,0,.33-.76.92.92,0,0,0-.28-.75,1.28,1.28,0,0,0-.86-.24h-.66Z"/><path class="cls-4" d="M69.49,95.66a2,2,0,0,1-.69,1.67,2.88,2.88,0,0,1-1.94.58h-.62v2.42H64.8V93.54H67a2.92,2.92,0,0,1,1.88.53A2,2,0,0,1,69.49,95.66Zm-3.25,1.07h.47a1.55,1.55,0,0,0,1-.26.91.91,0,0,0,.33-.76,1,1,0,0,0-.28-.75,1.29,1.29,0,0,0-.87-.24h-.65Z"/><path class="cls-4" d="M70.77,100.33V93.54h1.44v5.6H75v1.19Z"/><path class="cls-4" d="M76.14,100.33V93.54h1.44v6.79Z"/><path class="cls-4" d="M82.17,94.64a1.47,1.47,0,0,0-1.26.61,2.82,2.82,0,0,0-.44,1.7c0,1.51.56,2.27,1.7,2.27a5.34,5.34,0,0,0,1.73-.36v1.21a4.85,4.85,0,0,1-1.86.35,2.85,2.85,0,0,1-2.27-.9A3.82,3.82,0,0,1,79,96.94a4.16,4.16,0,0,1,.38-1.85,2.8,2.8,0,0,1,1.11-1.22,3.19,3.19,0,0,1,1.69-.43,4.58,4.58,0,0,1,2,.48l-.47,1.17a8.09,8.09,0,0,0-.76-.31A2.31,2.31,0,0,0,82.17,94.64Z"/><path class="cls-4" d="M89.5,100.33,89,98.71H86.53L86,100.33H84.49l2.39-6.82h1.76l2.41,6.82Zm-.84-2.83C88.21,96,88,95.21,87.89,95l-.12-.45c-.1.39-.39,1.37-.88,2.93Z"/><path class="cls-4" d="M94.52,100.33H93.08V94.74H91.24v-1.2h5.12v1.2H94.52Z"/><path class="cls-4" d="M97.41,100.33V93.54h1.44v6.79Z"/><path class="cls-4" d="M106.71,96.92a3.7,3.7,0,0,1-.83,2.59,3.09,3.09,0,0,1-2.4.91,3.05,3.05,0,0,1-2.39-.91,3.68,3.68,0,0,1-.84-2.6,3.63,3.63,0,0,1,.84-2.58,3.12,3.12,0,0,1,2.4-.9,3.08,3.08,0,0,1,2.39.9A3.67,3.67,0,0,1,106.71,96.92Zm-4.95,0a2.85,2.85,0,0,0,.43,1.72,1.52,1.52,0,0,0,1.29.57c1.15,0,1.72-.76,1.72-2.29s-.57-2.29-1.71-2.29a1.5,1.5,0,0,0-1.29.58A2.82,2.82,0,0,0,101.76,96.92Z"/><path class="cls-4" d="M114.14,100.33h-1.83l-3-5.14h0c.05.91.08,1.56.08,1.94v3.2h-1.28V93.54h1.81l2.95,5.08h0c0-.88-.07-1.5-.07-1.87V93.54h1.3Z"/><path class="cls-4" d="M118.32,100.33V93.54h1.43v5.6h2.76v1.19Z"/><path class="cls-4" d="M127.84,100.33l-.49-1.62h-2.48l-.49,1.62h-1.55l2.4-6.82H127l2.4,6.82ZM127,97.5c-.45-1.46-.71-2.29-.76-2.48s-.1-.34-.13-.45c-.1.39-.39,1.37-.87,2.93Z"/><path class="cls-4" d="M132.36,96.33l1.41-2.79h1.55l-2.25,4.15v2.64h-1.43v-2.6l-2.25-4.19H131Z"/><path class="cls-4" d="M140.08,100.33h-3.91V93.54h3.91v1.18h-2.47v1.49h2.3v1.18h-2.3v1.75h2.47Z"/><path class="cls-4" d="M142.94,97.72v2.61H141.5V93.54h2a3.4,3.4,0,0,1,2,.5,2,2,0,0,1,.34,2.6,2.19,2.19,0,0,1-.94.73l2,3h-1.6l-1.62-2.61Zm0-1.17h.46a1.8,1.8,0,0,0,1-.22.81.81,0,0,0,.32-.72.76.76,0,0,0-.33-.69,2.08,2.08,0,0,0-1-.2h-.43Z"/><path class="cls-5" d="M565.62,60.17a3.34,3.34,0,0,0-2.35-1l-74.42,0h0a3.4,3.4,0,0,0-3.35,3.35l0,59.12A3.4,3.4,0,0,0,488.8,125l74.43,0h0a3.4,3.4,0,0,0,3.35-3.35l0-59.12A3.37,3.37,0,0,0,565.62,60.17Zm-2.24,61.48a.23.23,0,0,1-.15.15v0l-74.42,0c-.06,0-.16-.11-.16-.16l0-50.33h74.73Zm-1.32-56.46a1.9,1.9,0,0,1-1.9,1.9l-52.39,0a1.89,1.89,0,1,1,0-3.78l52.39,0A1.9,1.9,0,0,1,562.06,65.19Zm-59.89-.07a1.29,1.29,0,1,1-1.29-1.29A1.28,1.28,0,0,1,502.17,65.12Zm-3.79,0a1.29,1.29,0,1,1-1.28-1.28A1.29,1.29,0,0,1,498.38,65.11Zm-5.07-1.28A1.28,1.28,0,1,1,492,65.11,1.28,1.28,0,0,1,493.31,63.83Z"/><rect class="cls-6" x="521.44" y="78.89" width="34.59" height="2.35"/><rect class="cls-7" x="521.44" y="83.2" width="34.59" height="2.35"/><rect class="cls-8" x="521.44" y="87.51" width="34.59" height="2.35"/><rect class="cls-9" x="521.44" y="91.83" width="28.94" height="2.35"/><rect class="cls-10" x="521.44" y="96.14" width="20.62" height="2.35"/><rect class="cls-11" x="494.95" y="101.76" width="21.64" height="1.36"/><rect class="cls-12" x="494.95" y="103.97" width="21.64" height="1.36"/><rect class="cls-13" x="494.95" y="106.17" width="21.64" height="1.36"/><rect class="cls-14" x="494.95" y="108.38" width="21.64" height="1.36"/><rect class="cls-15" x="494.95" y="78.89" width="21.76" height="19.82"/><text class="cls-16" transform="translate(504.69 53.87)"><tspan class="cls-17">W</tspan><tspan class="cls-18" x="10.26" y="0">e</tspan><tspan class="cls-19" x="16.66" y="0">b</tspan><tspan class="cls-20" x="23.58" y="0">s</tspan><tspan class="cls-21" x="28.95" y="0">i</tspan><tspan class="cls-22" x="32.05" y="0">t</tspan><tspan x="36.35" y="0">e</tspan></text><text class="cls-16" transform="translate(315.48 73.29)"><tspan class="cls-23">R</tspan><tspan class="cls-24" x="7" y="0">e</tspan><tspan x="13.43" y="0">q</tspan><tspan class="cls-25" x="20.29" y="0">u</tspan><tspan class="cls-26" x="27.29" y="0">e</tspan><tspan class="cls-27" x="33.72" y="0">s</tspan><tspan class="cls-28" x="39.28" y="0">t </tspan><tspan class="cls-29" x="46.46" y="0">c</tspan><tspan class="cls-30" x="51.85" y="0">o</tspan><tspan class="cls-31" x="58.59" y="0">n</tspan><tspan class="cls-22" x="65.56" y="0">t</tspan><tspan class="cls-18" x="69.86" y="0">e</tspan><tspan class="cls-31" x="76.25" y="0">n</tspan><tspan class="cls-28" x="83.22" y="0">t</tspan></text><text class="cls-16" transform="translate(268.35 112.77)"><tspan class="cls-32">R</tspan><tspan class="cls-33" x="7" y="0">e</tspan><tspan class="cls-34" x="13.39" y="0">t</tspan><tspan class="cls-35" x="17.71" y="0">u</tspan><tspan class="cls-36" x="24.67" y="0">r</tspan><tspan x="29.46" y="0">n </tspan><tspan class="cls-29" x="39.3" y="0">c</tspan><tspan class="cls-30" x="44.69" y="0">o</tspan><tspan class="cls-31" x="51.42" y="0">n</tspan><tspan class="cls-22" x="58.4" y="0">t</tspan><tspan class="cls-18" x="62.7" y="0">e</tspan><tspan class="cls-31" x="69.09" y="0">n</tspan><tspan class="cls-28" x="76.06" y="0">t </tspan><tspan class="cls-37" x="83.24" y="0">i</tspan><tspan x="86.29" y="0">n </tspan><tspan class="cls-38" x="96.13" y="0">r</tspan><tspan class="cls-24" x="100.86" y="0">e</tspan><tspan x="107.3" y="0">q</tspan><tspan class="cls-39" x="114.15" y="0">u</tspan><tspan class="cls-37" x="121.12" y="0">i</tspan><tspan class="cls-34" x="124.17" y="0">r</tspan><tspan class="cls-40" x="128.9" y="0">e</tspan><tspan x="135.34" y="0">d </tspan><tspan class="cls-41" x="145.05" y="0">f</tspan><tspan class="cls-42" x="149.08" y="0">o</tspan><tspan class="cls-36" x="155.82" y="0">r</tspan><tspan class="cls-43" x="160.6" y="0">m</tspan><tspan x="171.09" y="0">at</tspan></text><line class="cls-44" x1="311" y1="70.13" x2="205.29" y2="70.13"/><polygon class="cls-45" points="209.27 66.74 205.88 70.13 209.27 73.52 206.39 73.52 203 70.13 206.39 66.74 209.27 66.74"/><line class="cls-44" x1="456" y1="109.6" x2="471.71" y2="109.6"/><polygon class="cls-45" points="467.73 113 471.12 109.6 467.73 106.21 470.61 106.21 474 109.6 470.61 113 467.73 113"/><line class="cls-44" x1="474" y1="70.13" x2="408" y2="70.13"/><line class="cls-44" x1="265" y1="109.6" x2="205.65" y2="109.6"/><text class="cls-46" transform="translate(237.33 21.35)"><tspan class="cls-47">A</tspan><tspan class="cls-48" x="10.1" y="0">p</tspan><tspan class="cls-49" x="19.41" y="0">p</tspan><tspan class="cls-50" x="28.74" y="0">l</tspan><tspan class="cls-51" x="32.82" y="0">i</tspan><tspan class="cls-52" x="36.92" y="0">c</tspan><tspan class="cls-53" x="44.41" y="0">at</tspan><tspan class="cls-51" x="58.84" y="0">i</tspan><tspan class="cls-54" x="62.94" y="0">o</tspan><tspan x="72.04" y="0">n </tspan><tspan class="cls-55" x="85.46" y="0">L</tspan><tspan class="cls-56" x="93.83" y="0">a</tspan><tspan class="cls-57" x="102.35" y="0">y</tspan><tspan class="cls-58" x="110.23" y="0">e</tspan><tspan x="118.87" y="0">r</tspan></text><line class="cls-59" x1="236" y1="32" x2="364" y2="32"/></svg>